<svg width="34" height="34" viewBox="0 0 34 34" fill="none" xmlns="http://www.w3.org/2000/svg">
<circle cx="17" cy="17" r="16" stroke="white" stroke-width="2"/>
<path d="M16.104 16.62C16.44 16.632 16.776 16.608 17.112 16.548C17.448 16.488 17.748 16.386 18.012 16.242C18.276 16.086 18.486 15.876 18.642 15.612C18.81 15.348 18.894 15.024 18.894 14.64C18.894 14.1 18.708 13.668 18.336 13.344C17.976 13.02 17.508 12.858 16.932 12.858C16.572 12.858 16.26 12.93 15.996 13.074C15.732 13.218 15.51 13.416 15.33 13.668C15.162 13.908 15.036 14.184 14.952 14.496C14.868 14.796 14.832 15.108 14.844 15.432H12.792C12.816 14.82 12.93 14.256 13.134 13.74C13.338 13.212 13.614 12.756 13.962 12.372C14.322 11.988 14.754 11.688 15.258 11.472C15.762 11.256 16.332 11.148 16.968 11.148C17.46 11.148 17.94 11.22 18.408 11.364C18.888 11.508 19.314 11.718 19.686 11.994C20.07 12.27 20.376 12.624 20.604 13.056C20.832 13.476 20.946 13.962 20.946 14.514C20.946 15.15 20.802 15.708 20.514 16.188C20.226 16.656 19.776 16.998 19.164 17.214V17.25C19.884 17.394 20.442 17.754 20.838 18.33C21.246 18.894 21.45 19.584 21.45 20.4C21.45 21 21.33 21.54 21.09 22.02C20.85 22.488 20.526 22.89 20.118 23.226C19.71 23.55 19.236 23.802 18.696 23.982C18.156 24.162 17.586 24.252 16.986 24.252C16.254 24.252 15.612 24.15 15.06 23.946C14.52 23.73 14.064 23.43 13.692 23.046C13.332 22.662 13.056 22.2 12.864 21.66C12.672 21.12 12.57 20.52 12.558 19.86H14.61C14.586 20.628 14.772 21.27 15.168 21.786C15.576 22.29 16.182 22.542 16.986 22.542C17.67 22.542 18.24 22.35 18.696 21.966C19.164 21.57 19.398 21.012 19.398 20.292C19.398 19.8 19.302 19.41 19.11 19.122C18.918 18.834 18.666 18.618 18.354 18.474C18.042 18.318 17.688 18.222 17.292 18.186C16.908 18.15 16.512 18.138 16.104 18.15V16.62Z" fill="white"/>
</svg>
