<svg width="34" height="34" viewBox="0 0 34 34" fill="none" xmlns="http://www.w3.org/2000/svg">
<circle cx="17" cy="17" r="16" stroke="white" stroke-width="2"/>
<path d="M21.306 24H12.702C12.714 22.956 12.966 22.044 13.458 21.264C13.95 20.484 14.622 19.806 15.474 19.23C15.882 18.93 16.308 18.642 16.752 18.366C17.196 18.078 17.604 17.772 17.976 17.448C18.348 17.124 18.654 16.776 18.894 16.404C19.134 16.02 19.26 15.582 19.272 15.09C19.272 14.862 19.242 14.622 19.182 14.37C19.134 14.106 19.032 13.866 18.876 13.65C18.72 13.422 18.504 13.236 18.228 13.092C17.952 12.936 17.592 12.858 17.148 12.858C16.74 12.858 16.398 12.942 16.122 13.11C15.858 13.266 15.642 13.488 15.474 13.776C15.318 14.052 15.198 14.382 15.114 14.766C15.042 15.15 15 15.564 14.988 16.008H12.936C12.936 15.312 13.026 14.67 13.206 14.082C13.398 13.482 13.68 12.966 14.052 12.534C14.424 12.102 14.874 11.766 15.402 11.526C15.942 11.274 16.566 11.148 17.274 11.148C18.042 11.148 18.684 11.274 19.2 11.526C19.716 11.778 20.13 12.096 20.442 12.48C20.766 12.864 20.994 13.284 21.126 13.74C21.258 14.184 21.324 14.61 21.324 15.018C21.324 15.522 21.246 15.978 21.09 16.386C20.934 16.794 20.724 17.172 20.46 17.52C20.196 17.856 19.896 18.168 19.56 18.456C19.224 18.744 18.876 19.014 18.516 19.266C18.156 19.518 17.796 19.758 17.436 19.986C17.076 20.214 16.74 20.442 16.428 20.67C16.128 20.898 15.864 21.138 15.636 21.39C15.408 21.63 15.252 21.888 15.168 22.164H21.306V24Z" fill="white"/>
</svg>
