<svg width="34" height="34" viewBox="0 0 34 34" fill="none" xmlns="http://www.w3.org/2000/svg">
<circle cx="17" cy="17" r="16" stroke="white" stroke-width="2"/>
<path d="M12.63 11.4H21.252V13.11C20.592 13.854 19.992 14.628 19.452 15.432C18.912 16.224 18.438 17.07 18.03 17.97C17.634 18.858 17.31 19.8 17.058 20.796C16.806 21.792 16.638 22.86 16.554 24H14.304C14.376 23.004 14.544 22.02 14.808 21.048C15.084 20.076 15.432 19.134 15.852 18.222C16.284 17.31 16.782 16.434 17.346 15.594C17.91 14.754 18.516 13.968 19.164 13.236H12.63V11.4Z" fill="white"/>
</svg>
