<svg width="34" height="34" viewBox="0 0 34 34" fill="none" xmlns="http://www.w3.org/2000/svg">
<circle cx="17" cy="17" r="16" stroke="white" stroke-width="2"/>
<path d="M14.214 11.4H20.73V13.236H15.744L15.096 16.44L15.132 16.476C15.408 16.164 15.756 15.93 16.176 15.774C16.608 15.606 17.034 15.522 17.454 15.522C18.078 15.522 18.636 15.63 19.128 15.846C19.62 16.05 20.034 16.344 20.37 16.728C20.706 17.1 20.958 17.544 21.126 18.06C21.306 18.576 21.396 19.134 21.396 19.734C21.396 20.238 21.312 20.76 21.144 21.3C20.988 21.828 20.73 22.314 20.37 22.758C20.022 23.19 19.572 23.55 19.02 23.838C18.468 24.114 17.808 24.252 17.04 24.252C16.428 24.252 15.858 24.168 15.33 24C14.814 23.844 14.358 23.604 13.962 23.28C13.566 22.956 13.248 22.56 13.008 22.092C12.78 21.612 12.654 21.054 12.63 20.418H14.682C14.742 21.102 14.976 21.63 15.384 22.002C15.792 22.362 16.332 22.542 17.004 22.542C17.436 22.542 17.802 22.47 18.102 22.326C18.402 22.182 18.642 21.984 18.822 21.732C19.014 21.48 19.146 21.186 19.218 20.85C19.302 20.514 19.344 20.154 19.344 19.77C19.344 19.422 19.296 19.092 19.2 18.78C19.104 18.456 18.96 18.174 18.768 17.934C18.576 17.694 18.324 17.502 18.012 17.358C17.712 17.214 17.358 17.142 16.95 17.142C16.518 17.142 16.11 17.226 15.726 17.394C15.354 17.55 15.084 17.85 14.916 18.294H12.864L14.214 11.4Z" fill="white"/>
</svg>
