<svg width="34" height="34" viewBox="0 0 34 34" fill="none" xmlns="http://www.w3.org/2000/svg">
<circle cx="17" cy="17" r="16" stroke="white" stroke-width="2"/>
<path d="M19.11 14.586C19.062 14.07 18.876 13.656 18.552 13.344C18.24 13.02 17.814 12.858 17.274 12.858C16.902 12.858 16.578 12.93 16.302 13.074C16.038 13.206 15.81 13.386 15.618 13.614C15.438 13.842 15.288 14.106 15.168 14.406C15.06 14.694 14.97 15 14.898 15.324C14.826 15.648 14.772 15.972 14.736 16.296C14.712 16.608 14.688 16.902 14.664 17.178L14.7 17.214C14.976 16.71 15.354 16.338 15.834 16.098C16.326 15.846 16.854 15.72 17.418 15.72C18.042 15.72 18.6 15.828 19.092 16.044C19.584 16.26 19.998 16.56 20.334 16.944C20.682 17.316 20.946 17.76 21.126 18.276C21.306 18.792 21.396 19.35 21.396 19.95C21.396 20.562 21.294 21.132 21.09 21.66C20.898 22.176 20.616 22.632 20.244 23.028C19.872 23.412 19.428 23.712 18.912 23.928C18.396 24.144 17.826 24.252 17.202 24.252C16.278 24.252 15.516 24.084 14.916 23.748C14.328 23.4 13.86 22.932 13.512 22.344C13.176 21.744 12.942 21.048 12.81 20.256C12.678 19.452 12.612 18.588 12.612 17.664C12.612 16.908 12.69 16.146 12.846 15.378C13.014 14.61 13.284 13.914 13.656 13.29C14.028 12.654 14.514 12.138 15.114 11.742C15.726 11.346 16.476 11.148 17.364 11.148C17.868 11.148 18.342 11.232 18.786 11.4C19.23 11.568 19.62 11.802 19.956 12.102C20.304 12.402 20.586 12.762 20.802 13.182C21.018 13.602 21.138 14.07 21.162 14.586H19.11ZM17.13 22.542C17.502 22.542 17.826 22.47 18.102 22.326C18.378 22.17 18.606 21.972 18.786 21.732C18.978 21.492 19.116 21.216 19.2 20.904C19.296 20.58 19.344 20.25 19.344 19.914C19.344 19.578 19.296 19.254 19.2 18.942C19.116 18.63 18.978 18.36 18.786 18.132C18.606 17.892 18.378 17.7 18.102 17.556C17.826 17.412 17.502 17.34 17.13 17.34C16.758 17.34 16.428 17.412 16.14 17.556C15.864 17.688 15.63 17.874 15.438 18.114C15.246 18.342 15.102 18.612 15.006 18.924C14.91 19.236 14.862 19.566 14.862 19.914C14.862 20.262 14.91 20.592 15.006 20.904C15.102 21.216 15.246 21.498 15.438 21.75C15.63 21.99 15.864 22.182 16.14 22.326C16.428 22.47 16.758 22.542 17.13 22.542Z" fill="white"/>
</svg>
