<svg width="1186" height="8" viewBox="0 0 1186 8" fill="none" xmlns="http://www.w3.org/2000/svg">
<path d="M1185.35 4.35355C1185.55 4.15829 1185.55 3.84171 1185.35 3.64645L1182.17 0.464466C1181.98 0.269204 1181.66 0.269204 1181.46 0.464466C1181.27 0.659728 1181.27 0.976311 1181.46 1.17157L1184.29 4L1181.46 6.82843C1181.27 7.02369 1181.27 7.34027 1181.46 7.53553C1181.66 7.7308 1181.98 7.7308 1182.17 7.53553L1185.35 4.35355ZM0 4.5H2.99242V3.5H0V4.5ZM8.97727 4.5H14.9621V3.5H8.97727V4.5ZM20.947 4.5H26.9318V3.5H20.947V4.5ZM32.9167 4.5H38.9015V3.5H32.9167V4.5ZM44.8864 4.5H50.8712V3.5H44.8864V4.5ZM56.8561 4.5H62.8409V3.5H56.8561V4.5ZM68.8258 4.5H74.8106V3.5H68.8258V4.5ZM80.7955 4.5H86.7803V3.5H80.7955V4.5ZM92.7652 4.5H98.75V3.5H92.7652V4.5ZM104.735 4.5H110.72V3.5H104.735V4.5ZM116.705 4.5H122.689V3.5H116.705V4.5ZM128.674 4.5H134.659V3.5H128.674V4.5ZM140.644 4.5H146.629V3.5H140.644V4.5ZM152.614 4.5H158.598V3.5H152.614V4.5ZM164.583 4.5H170.568V3.5H164.583V4.5ZM176.553 4.5H182.538V3.5H176.553V4.5ZM188.523 4.5H194.508V3.5H188.523V4.5ZM200.492 4.5H206.477V3.5H200.492V4.5ZM212.462 4.5H218.447V3.5H212.462V4.5ZM224.432 4.5H230.417V3.5H224.432V4.5ZM236.402 4.5H242.386V3.5H236.402V4.5ZM248.371 4.5H254.356V3.5H248.371V4.5ZM260.341 4.5H266.326V3.5H260.341V4.5ZM272.311 4.5H278.296V3.5H272.311V4.5ZM284.28 4.5H290.265V3.5H284.28V4.5ZM296.25 4.5H302.235V3.5H296.25V4.5ZM308.22 4.5H314.205V3.5H308.22V4.5ZM320.19 4.5H326.174V3.5H320.19V4.5ZM332.159 4.5H338.144V3.5H332.159V4.5ZM344.129 4.5H350.114V3.5H344.129V4.5ZM356.099 4.5H362.084V3.5H356.099V4.5ZM368.068 4.5H374.053V3.5H368.068V4.5ZM380.038 4.5H386.023V3.5H380.038V4.5ZM392.008 4.5H397.993V3.5H392.008V4.5ZM403.978 4.5H409.962V3.5H403.978V4.5ZM415.947 4.5H421.932V3.5H415.947V4.5ZM427.917 4.5H433.902V3.5H427.917V4.5ZM439.887 4.5H445.872V3.5H439.887V4.5ZM451.857 4.5H457.841V3.5H451.857V4.5ZM463.826 4.5H469.811V3.5H463.826V4.5ZM475.796 4.5H481.781V3.5H475.796V4.5ZM487.766 4.5H493.751V3.5H487.766V4.5ZM499.735 4.5H505.72V3.5H499.735V4.5ZM511.705 4.5H517.69V3.5H511.705V4.5ZM523.675 4.5H529.66V3.5H523.675V4.5ZM535.645 4.5H541.629V3.5H535.645V4.5ZM547.614 4.5H553.599V3.5H547.614V4.5ZM559.584 4.5H565.569V3.5H559.584V4.5ZM571.554 4.5H577.539V3.5H571.554V4.5ZM583.523 4.5H589.508V3.5H583.523V4.5ZM595.493 4.5H601.478V3.5H595.493V4.5ZM607.463 4.5H613.448V3.5H607.463V4.5ZM619.433 4.5H625.418V3.5H619.433V4.5ZM631.402 4.5H637.387V3.5H631.402V4.5ZM643.372 4.5H649.357V3.5H643.372V4.5ZM655.342 4.5H661.327V3.5H655.342V4.5ZM667.312 4.5H673.296V3.5H667.312V4.5ZM679.281 4.5H685.266V3.5H679.281V4.5ZM691.251 4.5H697.236V3.5H691.251V4.5ZM703.221 4.5H709.206V3.5H703.221V4.5ZM715.191 4.5H721.175V3.5H715.191V4.5ZM727.16 4.5H733.145V3.5H727.16V4.5ZM739.13 4.5H745.115V3.5H739.13V4.5ZM751.1 4.5H757.085V3.5H751.1V4.5ZM763.069 4.5H769.054V3.5H763.069V4.5ZM775.039 4.5H781.024V3.5H775.039V4.5ZM787.009 4.5H792.994V3.5H787.009V4.5ZM798.979 4.5H804.963V3.5H798.979V4.5ZM810.948 4.5H816.933V3.5H810.948V4.5ZM822.918 4.5H828.903V3.5H822.918V4.5ZM834.888 4.5H840.873V3.5H834.888V4.5ZM846.857 4.5H852.842V3.5H846.857V4.5ZM858.827 4.5H864.812V3.5H858.827V4.5ZM870.797 4.5H876.782V3.5H870.797V4.5ZM882.767 4.5H888.752V3.5H882.767V4.5ZM894.736 4.5H900.721V3.5H894.736V4.5ZM906.706 4.5H912.691V3.5H906.706V4.5ZM918.676 4.5H924.661V3.5H918.676V4.5ZM930.646 4.5H936.63V3.5H930.646V4.5ZM942.615 4.5H948.6V3.5H942.615V4.5ZM954.585 4.5H960.57V3.5H954.585V4.5ZM966.555 4.5H972.54V3.5H966.555V4.5ZM978.524 4.5H984.509V3.5H978.524V4.5ZM990.494 4.5H996.479V3.5H990.494V4.5ZM1002.46 4.5H1008.45V3.5H1002.46V4.5ZM1014.43 4.5H1020.42V3.5H1014.43V4.5ZM1026.4 4.5H1032.39V3.5H1026.4V4.5ZM1038.37 4.5H1044.36V3.5H1038.37V4.5ZM1050.34 4.5H1056.33V3.5H1050.34V4.5ZM1062.31 4.5H1068.3V3.5H1062.31V4.5ZM1074.28 4.5H1080.27V3.5H1074.28V4.5ZM1086.25 4.5H1092.24V3.5H1086.25V4.5ZM1098.22 4.5H1104.21V3.5H1098.22V4.5ZM1110.19 4.5H1116.18V3.5H1110.19V4.5ZM1122.16 4.5H1128.15V3.5H1122.16V4.5ZM1134.13 4.5H1140.12V3.5H1134.13V4.5ZM1146.1 4.5H1152.09V3.5H1146.1V4.5ZM1158.07 4.5H1164.06V3.5H1158.07V4.5ZM1170.04 4.5H1176.02V3.5H1170.04V4.5ZM1182.01 4.5H1185V3.5H1182.01V4.5Z" fill="white"/>
</svg>
